<?xml version="1.0" encoding="UTF-8"?>
<svg xmlns="http://www.w3.org/2000/svg" xmlns:xlink="http://www.w3.org/1999/xlink" viewBox="0 0 1110 300">
  <defs>
    <style>
      .svg-brand-1 {
        fill: url(#gradient_1);
      }

      .svg-brand-2 {
        fill: #0000ff;
      }

      .svg-brand-3 {
        fill: none;
      }

      .svg-brand-4 {
        fill: url(#gradient_2);
      }

      .svg-brand-5 {
        clip-path: url(#clippath-1);
      }

      .svg-brand-6 {
        clip-path: url(#clippath-3);
      }

      .svg-brand-7 {
        isolation: isolate;
        opacity: .5;
      }

      .svg-brand-8 {
        clip-path: url(#clippath-2);
      }

      .svg-brand-9 {
        clip-path: url(#clippath);
      }
    </style>
    <clipPath id="clippath">
      <rect class="svg-brand-3" x="56.79" y="1" width="33.36" height="33.36"/>
    </clipPath>
    <clipPath id="clippath-1">
      <rect class="svg-brand-3" x="57.12" y="1.89" width="31.25" height="31.25"/>
    </clipPath>
    <clipPath id="clippath-2">
      <rect class="svg-brand-3" x="56.79" y="113.9" width="33.36" height="33.36"/>
    </clipPath>
    <clipPath id="clippath-3">
      <rect class="svg-brand-3" x="57.12" y="115.52" width="31.25" height="31.25"/>
    </clipPath>
    <linearGradient id="gradient_2" data-name="Gradiente sem nome 13" x1="15.94" y1="34.76" x2="15.94" y2="139.66" gradientUnits="userSpaceOnUse">
      <stop offset="0" stop-color="#0000ff"/>
      <stop offset=".08" stop-color="#0000ff" stop-opacity=".79"/>
      <stop offset=".17" stop-color="#0000ff" stop-opacity=".61"/>
      <stop offset=".26" stop-color="#0000ff" stop-opacity=".44"/>
      <stop offset=".35" stop-color="#0000ff" stop-opacity=".31"/>
      <stop offset=".45" stop-color="#0000ff" stop-opacity=".19"/>
      <stop offset=".56" stop-color="#0000ff" stop-opacity=".11"/>
      <stop offset=".68" stop-color="#0000ff" stop-opacity=".05"/>
      <stop offset=".81" stop-color="#0000ff" stop-opacity=".01"/>
      <stop offset="1" stop-color="#0000ff" stop-opacity="0"/>
    </linearGradient>
    <linearGradient id="gradient_1" data-name="Gradiente sem nome 46" x1="85.06" y1="62.02" x2="139.36" y2="7.71" gradientUnits="userSpaceOnUse">
      <stop offset="0" stop-color="#0000ff"/>
      <stop offset=".1" stop-color="#0c24fc"/>
      <stop offset=".28" stop-color="#205df9"/>
      <stop offset=".45" stop-color="#308df6"/>
      <stop offset=".61" stop-color="#3db2f4"/>
      <stop offset=".76" stop-color="#46cdf3"/>
      <stop offset=".9" stop-color="#4cddf2"/>
      <stop offset="1" stop-color="#4ee3f2"/>
    </linearGradient>
  </defs>
  <g class="fill-color">
    <path d="M802.13,194.05c-4.99-2.11-10.51-3.18-16.41-3.18-6.84,0-13.29,1.15-19.18,3.41-5.88,2.26-11.07,5.44-15.41,9.43-4.36,4.02-8.15,8.78-11.26,14.16-3.11,5.39-5.47,11.33-7.01,17.67-1.54,6.35-2.33,13.07-2.33,19.95,0,9,1.74,16.87,5.18,23.4,3.42,6.49,8.35,11.52,14.67,14.94,6.35,3.44,13.95,5.18,22.58,5.18,6.44,0,12.34-.8,17.53-2.37,5.19-1.57,9.74-3.7,13.52-6.34,1.79-1.25,3.65-2.7,5.57-4.35,3.13-2.68,2.93-7.59-.41-10l-7.11-5.13c-2.07-1.5-4.91-1.41-6.86.25-2.71,2.31-5.41,4.11-8.06,5.38-3.91,1.89-8.4,2.84-13.33,2.84-3.13,0-6.12-.59-8.88-1.74-2.79-1.17-5.3-3.05-7.48-5.6-2.17-2.55-3.73-5.65-4.62-9.23l-.18-.74-.16-.67,1.58-.14c7-.85,13.64-2,19.71-3.41,6.06-1.41,12-3.33,17.67-5.73,5.64-2.38,10.52-5.13,14.5-8.17,3.93-3,7.14-6.69,9.52-10.97,2.36-4.25,3.56-8.97,3.56-14.05,0-5.74-1.59-10.83-4.72-15.12-3.15-4.32-7.26-7.57-12.2-9.66M795.12,226.4c-1.14,1.94-2.75,3.69-4.79,5.2-1.98,1.47-4.28,2.82-6.83,4.02-2.55,1.2-5.47,2.27-8.69,3.17-3.19.9-6.45,1.66-9.68,2.27-3.24.61-6.68,1.17-10.23,1.67l-.67.09-1.06.19.32-1.89c.88-4.14,2.17-7.96,3.84-11.35,1.68-3.39,3.57-6.3,5.62-8.64,2.06-2.35,4.35-4.35,6.82-5.93,2.47-1.58,4.96-2.76,7.4-3.5,2.45-.74,4.93-1.12,7.38-1.12s4.77.37,6.57,1.1c1.87.75,3.3,1.83,4.28,3.22.98,1.4,1.48,3.12,1.48,5.12,0,2.26-.59,4.41-1.76,6.39"/>
    <path d="M295.89,190.01c-15.23,0-25.66,5.01-31.3,15.23-5.63-10.23-16.07-15.23-31.3-15.23-28.17,0-42.36,13.56-42.36,40.48v55.92c0,7.51,1.88,9.39,9.39,9.39h2.71c7.51,0,9.39-1.88,9.39-9.39v-55.92c0-14.19,4.8-20.45,20.87-20.45s20.66,6.26,20.66,20.45v55.92c0,7.51,1.88,9.39,9.39,9.39h2.09c7.51,0,9.39-1.88,9.39-9.39v-55.92c0-14.19,5.01-20.45,21.07-20.45s20.66,6.26,20.66,20.45v55.92c0,7.51,1.88,9.39,9.39,9.39h2.71c7.51,0,9.39-1.88,9.39-9.39v-55.92c0-26.71-12.94-40.48-42.15-40.48"/>
    <path d="M540.96,190.01c-14.81,0-25.04,4.59-30.67,13.56v-44.44c0-7.51-1.88-9.39-9.39-9.39h-2.5c-7.51,0-9.39,1.88-9.39,9.39v94.31c0,29.84,17.73,44.65,47.57,44.65,31.93,0,47.78-14.4,47.78-44.65v-17.94c0-30.25-14.39-45.48-43.4-45.48M562.87,253.02c0,17.53-5.42,24.83-26.08,24.83s-26.5-7.51-26.5-24.83v-17.94c0-17.53,6.26-25.04,26.5-25.04s26.08,7.51,26.08,25.04v17.94Z"/>
    <path d="M616.79,151.2c-5.22,5.01-5.22,13.35,0,18.57,5.22,5.01,13.56,5.01,18.57,0,5.22-5.22,5.22-13.56,0-18.57-5.01-5.22-13.35-5.22-18.57,0"/>
    <path d="M627.43,192.3h-2.71c-7.51,0-9.39,1.88-9.39,9.39v84.71c0,7.51,1.88,9.39,9.39,9.39h2.71c7.51,0,9.39-1.88,9.39-9.39v-84.71c0-7.51-1.88-9.39-9.39-9.39"/>
    <path d="M703.38,277.22c-6.68,0-9.81-3.75-9.81-14.81v-103.28c0-7.51-1.88-9.39-9.39-9.39h-2.71c-7.51,0-9.39,1.88-9.39,9.39v107.46c0,21.07,11.06,30.88,27.75,30.88,1.04,0,2.09,0,2.92-.21,6.88-1.46,8.55-2.71,8.55-9.6v-2.09c0-7.3-1.04-8.35-7.93-8.35"/>
    <path d="M924.44,192.3h-2.71c-7.51,0-9.39,1.88-9.39,9.39v55.71c0,14.19-5.22,20.45-23.79,20.45s-23.99-6.26-23.99-20.45v-55.71c0-7.51-1.88-9.39-9.39-9.39h-2.71c-7.51,0-9.39,1.88-9.39,9.39v55.71c0,27.12,15.23,40.69,45.49,40.69s45.28-13.77,45.28-40.69v-55.71c0-7.51-1.88-9.39-9.39-9.39"/>
    <path d="M1067.59,190.01c-15.23,0-25.66,5.01-31.3,15.23-5.63-10.23-16.07-15.23-31.3-15.23-28.17,0-42.35,13.56-42.35,40.48v55.92c0,7.51,1.88,9.39,9.39,9.39h2.71c7.51,0,9.39-1.88,9.39-9.39v-55.92c0-14.19,4.8-20.45,20.86-20.45s20.66,6.26,20.66,20.45v55.92c0,7.51,1.88,9.39,9.39,9.39h2.09c7.51,0,9.39-1.88,9.39-9.39v-55.92c0-14.19,5.01-20.45,21.07-20.45s20.66,6.26,20.66,20.45v55.92c0,7.51,1.88,9.39,9.39,9.39h2.71c7.51,0,9.39-1.88,9.39-9.39v-55.92c0-26.71-12.93-40.48-42.15-40.48"/>
    <path d="M414.26,190c-32.32,0-47.96,15.85-47.96,45.04v17.93c0,30.03,14.59,45.04,47.96,45.04s47.54-16.06,47.54-45.04v-17.93c0-30.02-14.39-45.04-47.54-45.04M440.32,252.97c0,17.51-5.84,24.81-26.06,24.81s-26.48-7.51-26.48-24.81v-17.93c0-17.51,6.25-25.02,26.48-25.02s26.06,7.51,26.06,25.02v17.93Z"/>
  </g>
  <g>
    <g class="svg-brand-7">
      <g class="svg-brand-9">
        <g class="svg-brand-5">
          <path class="svg-brand-2" d="M88.37,17.52c0,8.63-6.99,15.62-15.62,15.62s-15.62-6.99-15.62-15.62,6.99-15.62,15.62-15.62,15.62,6.99,15.62,15.62"/>
        </g>
      </g>
    </g>
    <path class="svg-brand-2" d="M145.19,74.33c0,8.63-6.99,15.62-15.62,15.62s-15.62-6.99-15.62-15.62,6.99-15.62,15.62-15.62,15.62,6.99,15.62,15.62"/>
    <path class="svg-brand-2" d="M31.56,131.14c0,8.63-6.99,15.62-15.62,15.62S.31,139.77.31,131.14s6.99-15.62,15.62-15.62,15.62,6.99,15.62,15.62"/>
    <g class="svg-brand-7">
      <g class="svg-brand-8">
        <g class="svg-brand-6">
          <path class="svg-brand-2" d="M88.37,131.14c0,8.63-6.99,15.62-15.62,15.62s-15.62-6.99-15.62-15.62,6.99-15.62,15.62-15.62,15.62,6.99,15.62,15.62"/>
        </g>
      </g>
    </g>
    <path class="svg-brand-2" d="M145.19,131.14c0,8.63-6.99,15.62-15.62,15.62s-15.62-6.99-15.62-15.62,6.99-15.62,15.62-15.62,15.62,6.99,15.62,15.62"/>
    <path class="svg-brand-2" d="M26.8,6.47l56.9,56.9c6.05,6.05,6.05,15.95,0,22-6.05,6.05-15.95,6.05-22,0L4.8,28.47C-1.25,22.42-1.25,12.52,4.8,6.47,10.85.42,20.75.42,26.8,6.47"/>
    <path class="svg-brand-4" d="M15.94,1.89C7.38,1.89.38,8.89.38,17.45v56.98c0,8.56,7,15.56,15.55,15.56s15.55-7,15.55-15.56V17.45c0-8.56-7-15.56-15.55-15.56Z"/>
    <path class="svg-brand-1" d="M140.61,6.47h0c-3.02-3.02-7.01-4.54-11-4.54s-7.98,1.51-11,4.54l-56.89,56.9c-6.05,6.05-6.05,15.95,0,22,6.05,6.05,15.95,6.05,22,0l56.9-56.9c6.05-6.05,6.05-15.95,0-22Z"/>
  </g>
</svg>